<svg width="31" height="31" viewBox="0 0 31 31" fill="none" xmlns="http://www.w3.org/2000/svg">
<path d="M19.3853 15.521C19.3853 17.5917 17.7047 19.2723 15.6339 19.2723C13.5632 19.2723 11.8826 17.5917 11.8826 15.521C11.8826 13.4502 13.5632 11.7696 15.6339 11.7696C17.7047 11.7696 19.3853 13.4502 19.3853 15.521ZM30.6393 15.521C30.6393 23.8039 23.9169 30.5263 15.6339 30.5263C7.35096 30.5263 0.628555 23.8039 0.628555 15.521C0.628555 7.238 7.35096 0.515594 15.6339 0.515594C23.9169 0.515594 30.6393 7.238 30.6393 15.521ZM27.6382 15.521H21.6361C21.6361 12.2048 18.9501 9.51881 15.6339 9.51881C12.3177 9.51881 9.63177 12.2048 9.63177 15.521H3.62963C3.62963 22.1383 9.01655 27.5252 15.6339 27.5252C22.2513 27.5252 27.6382 22.1383 27.6382 15.521Z" fill="white"/>
</svg>
